<svg xmlns="http://www.w3.org/2000/svg" xmlns:xlink="http://www.w3.org/1999/xlink" width="486" height="461" viewBox="0 0 486 461"><defs><pattern id="a" width="1" height="1" viewBox="39.987 28.879 206.239 157.567"><image preserveAspectRatio="xMidYMid slice" width="286.214" height="191" xlink:href="../../../imgs%20portifolio/pexels-fauxels-3183197.jpg"/></pattern><pattern id="b" width="1" height="1" viewBox="41.385 66.977 121.528 158.771"><image preserveAspectRatio="xMidYMid slice" width="186" height="279" xlink:href="../../../imgs%20portifolio/pexels-vlad-che%C8%9Ban-2923156.jpg"/></pattern><pattern id="c" width="1" height="1" viewBox="96.045 0 190 273"><image preserveAspectRatio="xMidYMid slice" width="340.736" height="273" xlink:href="../../../imgs%20portifolio/pexels-pranjal-srivastava-2403251.jpg"/></pattern><pattern id="d" width="1" height="1" viewBox="29.098 20.811 139.804 90.378"><image preserveAspectRatio="xMidYMid slice" width="198" height="132" xlink:href="../../../imgs%20portifolio/pexels-fauxels-3184418.jpg"/></pattern></defs><g transform="translate(-1111 -290)"><rect width="250" height="191" rx="15" transform="translate(1111 290)" fill="url(#a)"/><rect width="186" height="243" rx="15" transform="translate(1187 508)" fill="url(#b)"/><rect width="190" height="273" rx="15" transform="translate(1403 468)" fill="url(#c)"/><rect width="198" height="128" rx="15" transform="translate(1399 318)" fill="url(#d)"/><rect width="167" height="141" rx="18" transform="translate(1316 552) rotate(-90)" fill="#fff"/><g transform="matrix(0.966, -0.259, 0.259, 0.966, 1316.111, 443.293)"><g transform="translate(0 0)"><path d="M-251.006-364.3a76.275,76.275,0,0,1,4.787,11.573c23.032-16.13,51.005-30.05,66.847-31.588,14.477-1.48,21.417,7.151,16.764,20.956-3.519,10.536-23.166,42.777-35.26,42.258-9.44-.345-7.325-12.958-10-19.533-2.381,2.8-6.651,9.8-8.261,12.036-15.919,22.206-25.935.635-30.9-15.976-13.693,8.9-26.325,18.865-31.975,27.512-2.381,3.691-3.768,6.883-.884,10.555l1.057,1.326-1.712-.5c-4.845-2.521-3.037-9.113-1.1-12.883,4.864-9.512,17.593-21.354,32.9-32.347-.192-.711-.345-1.365-.5-2.019a47.248,47.248,0,0,1-1.768-11.362Zm7.075,17.746.02.058c1.788,4.594,9.728,25.359,16.649,21.033,8.113-5.057,13.518-28.2,22.82-22.51,4.422,2.712,5.461,11.573,6.441,16.342a9,9,0,0,0,.654,2.211c7.171-2.672,20.841-26.089,23.8-33.125.9-2.211,4.019-10,1.423-11.651-6.364-4-28.339,4.825-34.913,7.69a302.682,302.682,0,0,0-36.9,19.951Zm46.757,17.476.058.038h0Zm-9.67-12.573.077-.038Z" transform="translate(283.636 384.48)" fill="#009688" fill-rule="evenodd"/><path d="M-269.85-260.293a1.913,1.913,0,0,0,1.9-1.925,1.913,1.913,0,0,0-1.925-1.9,1.913,1.913,0,0,0-1.9,1.9,1.928,1.928,0,0,0,1.922,1.922Z" transform="translate(279.756 345.106)" fill="#009688" fill-rule="evenodd"/></g></g></g></svg>